HIERARCHY
ROOT Hips
{
	OFFSET 0.000000 35.082581 0.000000
	CHANNELS 6 Xposition Yposition Zposition Xrotation Yrotation Zrotation 
	JOINT Spine
	{
		OFFSET 0.000000 6.876099 0.125700
		CHANNELS 3 Xrotation Yrotation Zrotation
		JOINT Spine1
		{
			OFFSET 0.000000 5.730043 0.104720
			CHANNELS 3 Xrotation Yrotation Zrotation
			JOINT Spine1_split
			{
				OFFSET 0.000000 5.730043 0.104720
				CHANNELS 3 Xrotation Yrotation Zrotation
				JOINT Spine2
				{
					OFFSET 0.000000 5.730043 0.104720
					CHANNELS 3 Xrotation Yrotation Zrotation
					JOINT Neck
					{
						OFFSET 0.000000 10.314075 0.188496
						CHANNELS 3 Xrotation Yrotation Zrotation
						JOINT Head
						{
							OFFSET 0.000000 7.643700 -2.377400
							CHANNELS 3 Xrotation Yrotation Zrotation
							JOINT HeadTop_End
							{
								OFFSET 0.000000 43.788605 -13.619600
								CHANNELS 3 Xrotation Yrotation Zrotation
								End Site
								{
									OFFSET 0.000000 0.000000 0.000000
								}
							}
						}
					}
					JOINT LeftShoulder
					{
						OFFSET 2.196100 4.412489 0.087492
						CHANNELS 3 Xrotation Yrotation Zrotation
						JOINT LeftShoulder_split
						{
							OFFSET 2.196100 4.412489 0.087492
							CHANNELS 3 Xrotation Yrotation Zrotation
							JOINT LeftArm
							{
								OFFSET 8.771219 -2.981674 -0.026999
								CHANNELS 3 Xrotation Yrotation Zrotation
								JOINT LeftForeArm
								{
									OFFSET 8.512804 0.000000 -0.000000
									CHANNELS 3 Xrotation Yrotation Zrotation
									JOINT LeftHand
									{
										OFFSET 18.484802 0.000000 -0.000000
										CHANNELS 3 Xrotation Yrotation Zrotation
										JOINT LeftHandThumb1
										{
											OFFSET 2.499420 -1.158070 2.653252
											CHANNELS 3 Xrotation Yrotation Zrotation
											JOINT LeftHandThumb2
											{
												OFFSET 2.370079 -1.368366 1.368366
												CHANNELS 3 Xrotation Yrotation Zrotation
												JOINT LeftHandThumb3
												{
													OFFSET 2.676727 -1.545410 1.545409
													CHANNELS 3 Xrotation Yrotation Zrotation
													JOINT LeftHandThumb4
													{
														OFFSET 1.692226 -0.977005 0.977007
														CHANNELS 3 Xrotation Yrotation Zrotation
														End Site
														{
															OFFSET 0.000000 0.000000 0.000000
														}
													}
												}
											}
										}
										JOINT LeftHandIndex1
										{
											OFFSET 7.924831 -0.457527 2.345128
											CHANNELS 3 Xrotation Yrotation Zrotation
											JOINT LeftHandIndex2
											{
												OFFSET 3.643303 0.000000 0.000000
												CHANNELS 3 Xrotation Yrotation Zrotation
												JOINT LeftHandIndex3
												{
													OFFSET 3.810799 0.000000 0.000000
													CHANNELS 3 Xrotation Yrotation Zrotation
													JOINT LeftHandIndex4
													{
														OFFSET 2.403702 0.000000 0.000000
														CHANNELS 3 Xrotation Yrotation Zrotation
														End Site
														{
															OFFSET 0.000000 0.000000 0.000000
														}
													}
												}
											}
										}
										JOINT LeftHandMiddle1
										{
											OFFSET 8.563995 0.000000 -0.000000
											CHANNELS 3 Xrotation Yrotation Zrotation
											JOINT LeftHandMiddle2
											{
												OFFSET 3.861618 0.000000 0.000000
												CHANNELS 3 Xrotation Yrotation Zrotation
												JOINT LeftHandMiddle3
												{
													OFFSET 3.701603 0.000000 0.000000
													CHANNELS 3 Xrotation Yrotation Zrotation
													JOINT LeftHandMiddle4
													{
														OFFSET 2.322544 0.000000 0.000000
														CHANNELS 3 Xrotation Yrotation Zrotation
														End Site
														{
															OFFSET 0.000000 0.000000 0.000000
														}
													}
												}
											}
										}
										JOINT LeftHandRing1
										{
											OFFSET 8.426460 -0.424637 -3.286992
											CHANNELS 3 Xrotation Yrotation Zrotation
											JOINT LeftHandRing2
											{
												OFFSET 3.126408 0.000000 0.000000
												CHANNELS 3 Xrotation Yrotation Zrotation
												JOINT LeftHandRing3
												{
													OFFSET 3.085026 0.000000 0.000000
													CHANNELS 3 Xrotation Yrotation Zrotation
													JOINT LeftHandRing4
													{
														OFFSET 1.644005 0.000000 0.000000
														CHANNELS 3 Xrotation Yrotation Zrotation
														End Site
														{
															OFFSET 0.000000 0.000000 0.000000
														}
													}
												}
											}
										}
									}
								}
							}
						}
					}
					JOINT RightShoulder
					{
						OFFSET -2.196100 4.412496 0.070690
						CHANNELS 3 Xrotation Yrotation Zrotation
						JOINT RightShoulder_split
						{
							OFFSET -2.196100 4.412496 0.070690
							CHANNELS 3 Xrotation Yrotation Zrotation
							JOINT RightArm
							{
								OFFSET -8.771282 -2.981682 -0.094208
								CHANNELS 3 Xrotation Yrotation Zrotation
								JOINT RightForeArm
								{
									OFFSET -8.494598 0.000000 0.000000
									CHANNELS 3 Xrotation Yrotation Zrotation
									JOINT RightHand
									{
										OFFSET -18.483803 0.000000 0.000001
										CHANNELS 3 Xrotation Yrotation Zrotation
										JOINT RightHandThumb1
										{
											OFFSET -2.527351 -1.008072 2.575253
											CHANNELS 3 Xrotation Yrotation Zrotation
											JOINT RightHandThumb2
											{
												OFFSET -2.321518 -1.340328 1.340329
												CHANNELS 3 Xrotation Yrotation Zrotation
												JOINT RightHandThumb3
												{
													OFFSET -2.657753 -1.534454 1.534455
													CHANNELS 3 Xrotation Yrotation Zrotation
													JOINT RightHandThumb4
													{
														OFFSET -1.807510 -1.043568 1.043567
														CHANNELS 3 Xrotation Yrotation Zrotation
														End Site
														{
															OFFSET 0.000000 0.000000 0.000000
														}
													}
												}
											}
										}
										JOINT RightHandIndex1
										{
											OFFSET -8.811420 0.015533 2.887987
											CHANNELS 3 Xrotation Yrotation Zrotation
											JOINT RightHandIndex2
											{
												OFFSET -3.537502 0.000000 0.000000
												CHANNELS 3 Xrotation Yrotation Zrotation
												JOINT RightHandIndex3
												{
													OFFSET -3.356201 0.000000 0.000000
													CHANNELS 3 Xrotation Yrotation Zrotation
													JOINT RightHandIndex4
													{
														OFFSET -1.933098 0.000000 0.000000
														CHANNELS 3 Xrotation Yrotation Zrotation
														End Site
														{
															OFFSET 0.000000 0.000000 0.000000
														}
													}
												}
											}
										}
										JOINT RightHandMiddle1
										{
											OFFSET -8.178135 0.000000 0.000000
											CHANNELS 3 Xrotation Yrotation Zrotation
											JOINT RightHandMiddle2
											{
												OFFSET -3.901302 0.000000 0.000000
												CHANNELS 3 Xrotation Yrotation Zrotation
												JOINT RightHandMiddle3
												{
													OFFSET -3.909599 0.000000 0.000000
													CHANNELS 3 Xrotation Yrotation Zrotation
													JOINT RightHandMiddle4
													{
														OFFSET -2.376003 0.000000 0.000000
														CHANNELS 3 Xrotation Yrotation Zrotation
														End Site
														{
															OFFSET 0.000000 0.000000 0.000000
														}
													}
												}
											}
										}
										JOINT RightHandRing1
										{
											OFFSET -7.559013 0.014137 -2.865403
											CHANNELS 3 Xrotation Yrotation Zrotation
											JOINT RightHandRing2
											{
												OFFSET -3.449306 0.000000 0.000000
												CHANNELS 3 Xrotation Yrotation Zrotation
												JOINT RightHandRing3
												{
													OFFSET -3.362106 0.000000 0.000000
													CHANNELS 3 Xrotation Yrotation Zrotation
													JOINT RightHandRing4
													{
														OFFSET -2.076401 0.000000 0.000000
														CHANNELS 3 Xrotation Yrotation Zrotation
														End Site
														{
															OFFSET 0.000000 0.000000 0.000000
														}
													}
												}
											}
										}
									}
								}
							}
						}
					}
				}
			}
		}
	}
	JOINT LeftUpLeg
	{
		OFFSET 10.205400 -3.823500 0.155100
		CHANNELS 3 Xrotation Yrotation Zrotation
		JOINT LeftLeg
		{
			OFFSET 0.708757 -12.982077 0.567790
			CHANNELS 3 Xrotation Yrotation Zrotation
			JOINT LeftFoot
			{
				OFFSET -0.708756 -10.717838 -2.184338
				CHANNELS 3 Xrotation Yrotation Zrotation
				JOINT LeftToeBase
				{
					OFFSET 0.108149 -7.191104 7.560241
					CHANNELS 3 Xrotation Yrotation Zrotation
					JOINT LeftToe_End
					{
						OFFSET 0.070230 0.081724 4.490308
						CHANNELS 3 Xrotation Yrotation Zrotation
						End Site
						{
							OFFSET 0.000000 0.000000 0.000000
						}
					}
				}
			}
		}
	}
	JOINT RightUpLeg
	{
		OFFSET -10.205400 -3.823500 0.005500
		CHANNELS 3 Xrotation Yrotation Zrotation
		JOINT RightLeg
		{
			OFFSET -0.708756 -12.982134 0.610632
			CHANNELS 3 Xrotation Yrotation Zrotation
			JOINT RightFoot
			{
				OFFSET 0.708754 -10.717769 -1.945823
				CHANNELS 3 Xrotation Yrotation Zrotation
				JOINT RightToeBase
				{
					OFFSET -0.108140 -7.191069 7.372968
					CHANNELS 3 Xrotation Yrotation Zrotation
					JOINT RightToe_End
					{
						OFFSET -0.070227 0.081735 4.479403
						CHANNELS 3 Xrotation Yrotation Zrotation
						End Site
						{
							OFFSET 0.000000 0.000000 0.000000
						}
					}
				}
			}
		}
	}
}
MOTION
Frames: 5
Frame Time: 0.016667
-0.269113 28.599323 -0.034293 3.000807 -58.172195 6.374285 11.189903 0.063100 -2.592040 8.434584 0.027685 -5.592315 0.000000 0.000000 0.000000 8.457038 0.027885 -5.591869 -21.555843 25.063369 12.062740 -0.293896 25.465776 -3.209025 0.000001 -0.000000 -0.000000 -6.221639 -11.503781 -4.023741 0.000000 0.000000 0.000000 -23.062224 9.568432 -36.639652 0.046068 -43.168903 -0.011185 22.743797 -5.686036 15.979362 -1.064255 -7.954965 8.490060 2.373391 19.986124 -2.038321 0.808199 1.237759 2.631747 -0.000001 0.000000 0.000001 13.340874 -1.006683 10.682272 -0.167587 0.303379 -31.105631 -0.143387 0.303617 -32.256258 0.000001 0.000001 -0.000001 8.495428 -0.329579 -0.915333 0.231481 0.661191 -29.901861 0.444138 0.213486 -44.357028 0.000001 0.000000 0.000001 6.111729 3.150947 -16.210930 0.047035 0.322399 -30.125506 0.408813 0.818963 -42.140665 0.000001 0.000000 0.000001 -5.488203 10.658259 2.466422 0.000000 0.000000 0.000000 -41.473896 -26.755579 30.079071 24.955643 111.862844 -23.308707 -8.702503 12.423113 -9.801870 0.264989 10.061128 -10.888488 1.383775 -17.412877 3.016253 3.342376 -13.253721 -8.262777 -0.000002 0.000000 -0.000000 19.443628 11.174440 -13.340220 -0.118656 -0.322724 18.035581 -0.089912 -0.286598 23.256611 -0.000001 -0.000001 -0.000000 4.320481 2.436987 -4.811730 0.349141 -0.461247 26.890323 0.467492 0.154063 39.044865 -0.000001 0.000000 0.000001 -7.005631 -10.695133 5.719835 0.111885 -0.089182 26.155888 0.451311 -0.473565 33.265050 -0.000001 0.000001 0.000001 -37.006911 4.719542 33.439582 48.223280 -12.858511 -11.597196 -12.623340 -0.319689 -14.395995 -0.327597 1.238431 0.837250 -0.000000 0.000001 -0.000000 -31.642340 -2.223530 -36.223232 60.430748 9.462877 -7.242545 -30.088865 -4.049439 28.252994 -0.322805 -0.997449 -0.837187 0.000000 0.000002 -0.000000 
-0.276839 28.610611 0.009268 2.486606 -58.149731 5.611548 11.157983 0.027176 -2.664445 8.343009 -0.023347 -5.688295 0.000000 0.000000 0.000000 8.371670 0.015597 -5.630536 -20.102589 24.801803 13.023839 -0.857427 25.691085 -3.215340 0.000001 0.000000 -0.000000 -6.221590 -11.502576 -4.090427 0.000000 0.000000 0.000000 -23.051562 9.454017 -36.707407 0.206703 -43.116385 0.092972 22.538468 -5.934229 15.432514 -0.983736 -7.447195 8.678363 2.534425 20.452371 -1.857972 0.923800 1.716413 2.859956 -0.000004 0.000002 -0.000000 13.342561 -1.008434 10.138448 -0.166796 0.303601 -31.649604 -0.141256 0.302912 -32.800255 -0.000001 0.000000 -0.000000 8.486653 -0.324262 -1.459200 0.234601 0.662891 -30.445773 0.447169 0.214588 -44.900998 -0.000002 0.000000 0.000000 6.111044 3.157141 -16.754625 0.047445 0.326162 -30.669387 0.413877 0.818578 -42.684615 -0.000000 0.000001 -0.000001 -5.459868 9.874457 2.586609 0.000000 0.000000 0.000000 -40.532549 -25.915534 31.217373 24.790585 110.210778 -23.382719 -8.889549 12.458766 -8.493623 0.272592 9.991984 -10.913335 1.407695 -17.475138 2.991988 3.353958 -13.319397 -8.290911 0.000002 -0.000003 0.000003 19.443708 11.174493 -13.267053 -0.118580 -0.322795 18.108985 -0.089642 -0.286558 23.329992 -0.000000 0.000001 -0.000000 4.319285 2.436265 -4.738279 0.349504 -0.461529 26.963714 0.467885 0.153870 39.118262 0.000002 -0.000002 -0.000001 -7.006186 -10.695772 5.792800 0.111875 -0.089682 26.229287 0.452008 -0.473677 33.338474 -0.000001 -0.000002 -0.000001 -36.679431 4.124028 33.611801 48.690844 -12.729726 -11.641116 -13.019774 -0.238435 -14.481096 -0.327599 1.238436 0.837252 0.000000 -0.000003 0.000000 -31.129414 -2.785029 -36.040371 59.869586 9.594105 -7.197423 -29.923284 -3.968548 28.182590 -0.322803 -0.997452 -0.837187 0.000000 -0.000001 -0.000000 
-0.325174 28.614487 0.056156 1.916058 -58.121898 4.783685 11.070714 -0.010169 -2.739606 8.093930 -0.081175 -5.786258 0.000000 0.000000 0.000000 8.133085 -0.021275 -5.670400 -18.473604 24.513732 14.037477 -1.509212 25.960384 -3.156108 -0.000000 0.000000 0.000001 -6.237340 -11.503393 -4.274806 0.000000 0.000000 0.000000 -23.016754 9.112613 -36.903642 0.376356 -42.965817 0.192094 22.289798 -6.181486 14.845766 -0.897603 -6.894459 8.882398 2.708430 20.960128 -1.662696 1.047410 2.237638 3.107405 -0.000001 0.000005 -0.000002 13.344379 -1.010291 9.546764 -0.165977 0.306048 -32.241437 -0.138975 0.302201 -33.392146 0.000001 0.000000 -0.000001 8.477195 -0.316694 -2.050870 0.237938 0.664732 -31.037660 0.450529 0.215739 -45.492868 0.000000 0.000001 -0.000000 6.110036 3.163956 -17.346107 0.047831 0.330102 -31.261212 0.419349 0.818143 -43.276461 -0.000002 0.000001 0.000002 -5.454977 9.092303 2.875124 0.000000 0.000000 0.000000 -39.552037 -24.929106 32.615280 32.279232 109.755218 -30.680038 -5.944205 12.171675 -6.772568 0.293725 9.798396 -10.982913 1.474596 -17.649530 2.924095 3.380597 -13.503566 -8.372157 0.000001 -0.000002 0.000005 19.444029 11.174668 -13.062145 -0.118456 -0.322977 18.314503 -0.088870 -0.286540 23.535529 0.000001 -0.000000 -0.000000 4.315984 2.434228 -4.532569 0.350639 -0.462241 27.169210 0.469021 0.153319 39.323721 0.000000 0.000000 0.000000 -7.007857 -10.697470 5.997234 0.111892 -0.091086 26.434830 0.454039 -0.473808 33.543930 0.000003 0.000000 -0.000001 -36.338184 3.692321 33.965267 49.128202 -12.841586 -11.707676 -13.467067 -0.165778 -14.527237 -0.327594 1.238436 0.837250 0.000000 0.000003 0.000000 -30.449827 -3.355550 -35.786517 59.366570 9.652326 -7.161366 -29.921157 -3.927167 28.122455 -0.322802 -0.997450 -0.837188 0.000000 0.000001 0.000000 
-0.393797 28.622337 0.104308 1.323988 -58.089202 3.930691 10.940479 -0.047329 -2.815554 7.716266 -0.138316 -5.878633 0.000000 0.000000 0.000000 7.767783 -0.077104 -5.711214 -16.813189 24.183080 14.998421 -2.116840 26.147935 -2.929924 0.000000 0.000000 -0.000000 -6.272281 -11.473022 -4.554299 0.000000 0.000000 0.000000 -22.962497 8.580377 -37.210270 0.522208 -42.740448 0.264861 22.035037 -6.411165 14.252133 -0.807510 -6.305791 9.098568 2.892295 21.501292 -1.455664 1.176682 2.793020 3.369839 -0.000002 -0.000003 0.000001 13.346304 -1.012343 8.916806 -0.165091 0.308700 -32.871549 -0.136507 0.301334 -34.022210 0.000002 0.000001 0.000001 8.471083 -0.308421 -2.680894 0.241568 0.666629 -31.667790 0.454142 0.214420 -46.123024 -0.000001 0.000000 0.000000 6.108666 3.171305 -17.975941 0.048349 0.334412 -31.891314 0.425213 0.817627 -43.906546 0.000001 0.000000 -0.000000 -5.464600 8.274683 3.337396 0.000000 0.000000 0.000000 -38.620072 -23.706190 34.142862 37.232772 108.739173 -35.689811 -3.949282 11.691906 -4.741137 0.325844 9.501099 -11.089650 1.574322 -17.916672 2.815852 3.421039 -13.786489 -8.496991 -0.000002 0.000000 -0.000002 19.444459 11.174870 -12.747401 -0.118165 -0.323187 18.630198 -0.087739 -0.286417 23.851181 -0.000001 0.000001 0.000000 4.310946 2.431059 -4.216691 0.352345 -0.463338 27.484852 0.470800 0.152462 39.639338 0.000003 0.000003 -0.000001 -7.005738 -10.700421 6.312132 0.111860 -0.093220 26.750424 0.457078 -0.474076 33.859515 0.000001 -0.000000 0.000000 -35.980456 3.391926 34.408188 49.481036 -13.085739 -11.776557 -13.900600 -0.101799 -14.544068 -0.327594 1.238431 0.837250 -0.000000 -0.000001 -0.000000 -29.664133 -3.936187 -35.480353 58.830550 9.664695 -7.124799 -29.966048 -3.902723 28.065594 -0.322799 -0.997449 -0.837186 0.000000 0.000001 -0.000000 
-0.462703 28.626091 0.151770 0.744974 -58.052742 3.092376 10.776715 -0.082572 -2.888660 7.238969 -0.187263 -5.957856 0.000000 0.000000 0.000000 7.302204 -0.146039 -5.752769 -15.262433 23.781313 15.793674 -2.545712 26.126734 -2.432408 -0.000000 -0.000000 0.000001 -6.328942 -11.385476 -4.905907 0.000000 0.000000 0.000000 -22.894430 7.888643 -37.610280 0.611305 -42.459922 0.290295 21.812173 -6.609621 13.684926 -0.715016 -5.690062 9.323632 3.083091 22.067605 -1.240377 1.309240 3.374352 3.643155 -0.000002 0.000005 0.000003 13.348293 -1.014496 8.258113 -0.164198 0.311396 -33.530437 -0.133975 0.303583 -34.681023 -0.000001 -0.000002 0.000000 8.464848 -0.299666 -3.339663 0.245378 0.668612 -32.326660 0.457883 0.212917 -46.781806 0.000001 0.000002 0.000001 6.106914 3.179096 -18.634445 0.050764 0.338886 -32.550137 0.427458 0.816975 -44.565410 0.000002 -0.000001 -0.000001 -5.464583 7.537313 3.772391 0.000000 0.000000 0.000000 -37.732530 -22.484995 35.680628 34.387383 105.821043 -33.312707 -4.938319 11.155996 -2.544889 0.366355 9.120932 -11.226021 1.697823 -18.260856 2.678655 3.471917 -14.148406 -8.656672 0.000001 -0.000000 -0.000000 19.444992 11.175223 -12.344633 -0.117819 -0.323536 19.033867 -0.086252 -0.286284 24.254924 0.000000 0.000003 0.000001 4.304444 2.427049 -3.812699 0.354570 -0.464366 27.888595 0.473115 0.151343 40.042981 -0.000003 -0.000001 -0.000002 -7.003707 -10.704154 6.715003 0.111910 -0.095891 27.154182 0.456021 -0.474414 34.263115 0.000000 0.000000 -0.000001 -35.666828 3.146587 34.888989 49.833654 -13.398873 -11.853619 -14.324939 -0.045314 -14.527701 -0.327593 1.238438 0.837251 0.000000 -0.000000 0.000000 -28.877610 -4.481307 -35.161763 58.317214 9.658658 -7.090490 -30.020741 -3.886816 28.023143 -0.322802 -0.997450 -0.837187 0.000000 0.000001 0.000000 
